<mxfile host="app.diagrams.net" modified="2024-04-20T12:53:22.096Z" agent="Mozilla/5.0 (Windows NT 10.0; Win64; x64) AppleWebKit/537.36 (KHTML, like Gecko) Chrome/121.0.0.0 Safari/537.36 OPR/107.0.0.0" version="24.2.7" etag="GujTQqYV7oWYiorOnO4X" type="github">
  <diagram name="PÃ¡gina-1" id="t1WcOkwVqKjDSJEw1UHt">
    <mxGraphModel>
      <root>
        <mxCell id="0" />
        <mxCell id="1" parent="0" />
      </root>
    </mxGraphModel>
  </diagram>
</mxfile>
